<?xml version="1.0" encoding="utf-8"?>
<!-- Generator: Adobe Illustrator 21.1.0, SVG Export Plug-In . SVG Version: 6.00 Build 0)  -->
<svg version="1.1" id="Layer_1" xmlns="http://www.w3.org/2000/svg" xmlns:xlink="http://www.w3.org/1999/xlink" x="0px" y="0px"
	 viewBox="0 0 436 134" style="enable-background:new 0 0 436 134;" xml:space="preserve">
<style type="text/css">
	.st0{fill:#D82427;}
	.st1{fill:#212E63;}
	.st2{fill:#231F20;}
	.st3{fill-rule:evenodd;clip-rule:evenodd;fill:#D82427;}
	.st4{fill-rule:evenodd;clip-rule:evenodd;fill:#212E63;}
</style>
<g>
	<path class="st0" d="M120.8,46.8v3.3v1.8v3.9h-0.2H120h-1.9c-0.6,0-1-0.3-1.1-0.9c-0.1-0.4-0.2-1.4-0.3-3h-11v9.5h11.6v4.9h-11.6
		v9.7h11c0.2-1.7,0.3-2.7,0.3-3c0.1-0.6,0.5-0.9,1.1-0.9h1.9h0.6h0.2v3.9v1.8V81H99.2h-3.6v-2.8c0-0.8,0.4-1.3,1.2-1.5
		c0.1,0,0.2,0,0.3-0.1c0.1,0,0.4-0.1,0.7-0.1c0.3-0.1,0.8-0.1,1.4-0.2V51.5c-0.6-0.1-1.1-0.2-1.4-0.2c-0.3-0.1-0.6-0.1-0.7-0.1
		c-0.1,0-0.2,0-0.3-0.1c-0.8-0.2-1.2-0.7-1.2-1.5v-2.8h3.6H120.8z"/>
	<path class="st0" d="M165.6,51.1c-0.1,0-0.4,0.1-0.7,0.1c-0.3,0.1-0.8,0.1-1.4,0.2v24.8c0.6,0.1,1.1,0.2,1.4,0.2
		c0.3,0.1,0.6,0.1,0.7,0.1c0.1,0,0.2,0,0.3,0.1c0.8,0.2,1.2,0.7,1.2,1.5V81h-3.6h-5.6h-4.3v-2.8c0-0.8,0.4-1.3,1.2-1.5
		c0.1,0,1.1-0.2,3.1-0.4V58.9c0-0.4,0-0.9,0-1.3c0-0.5,0.1-1,0.1-1.5l-10.3,19.4c-0.2,0.4-0.5,0.8-0.9,1c-0.4,0.2-0.8,0.4-1.3,0.4
		h-0.9c-0.5,0-0.9-0.1-1.3-0.4c-0.4-0.2-0.7-0.6-0.9-1L131.8,56c0.1,0.5,0.1,1,0.1,1.5c0,0.5,0,1,0,1.4v17.4c2,0.3,3,0.4,3.1,0.4
		c0.8,0.2,1.2,0.7,1.2,1.5V81H132h-5.6h-3.6v-2.8c0-0.8,0.4-1.3,1.2-1.5c0.1,0,0.2,0,0.3-0.1c0.1,0,0.4-0.1,0.7-0.1
		c0.3-0.1,0.8-0.1,1.4-0.2V51.5c-0.6-0.1-1.1-0.2-1.4-0.2c-0.3-0.1-0.6-0.1-0.7-0.1c-0.1,0-0.2,0-0.3-0.1c-0.8-0.2-1.2-0.7-1.2-1.5
		v-2.8h3.6h4.8c0.3,0,0.5,0,0.7,0c0.2,0,0.4,0.1,0.6,0.1c0.2,0.1,0.3,0.2,0.5,0.3c0.1,0.1,0.3,0.3,0.4,0.6l10.2,19
		c0.3,0.5,0.5,1,0.7,1.6c0.2,0.5,0.5,1.1,0.7,1.6c0.2-0.6,0.4-1.1,0.7-1.7c0.2-0.6,0.5-1.1,0.8-1.6l10.1-18.9
		c0.1-0.2,0.3-0.4,0.4-0.6c0.1-0.1,0.3-0.2,0.4-0.3c0.2-0.1,0.4-0.1,0.6-0.1c0.2,0,0.5,0,0.7,0h4.8h3.6v2.8c0,0.8-0.4,1.3-1.2,1.5
		C165.8,51.1,165.7,51.1,165.6,51.1"/>
	<path class="st0" d="M196.4,57.7c0,1.7-0.3,3.2-0.8,4.6c-0.6,1.4-1.4,2.6-2.5,3.6c-1.1,1-2.5,1.8-4.1,2.3c-1.7,0.6-3.6,0.8-5.8,0.8
		h-4.2v7.4c0.6,0.1,1.1,0.2,1.4,0.2c0.3,0.1,0.6,0.1,0.7,0.1c0.1,0,0.2,0,0.3,0.1c0.8,0.2,1.2,0.7,1.2,1.5V81h-3.6h-6.4h-3.6v-2.8
		c0-0.8,0.4-1.3,1.2-1.5c0.1,0,0.2,0,0.3-0.1c0.1,0,0.4-0.1,0.7-0.1c0.3-0.1,0.8-0.1,1.4-0.2V51.5c-0.6-0.1-1.1-0.2-1.4-0.2
		c-0.3-0.1-0.6-0.1-0.7-0.1c-0.1,0-0.2,0-0.3-0.1c-0.8-0.2-1.2-0.7-1.2-1.5v-2.8h3.6h10.6c2.3,0,4.3,0.3,5.9,0.8
		c1.7,0.5,3.1,1.3,4.1,2.2c1.1,1,1.9,2.1,2.4,3.5C196.1,54.6,196.4,56.1,196.4,57.7 M190,57.7c0-0.9-0.1-1.7-0.4-2.5
		c-0.3-0.7-0.7-1.4-1.3-1.9c-0.6-0.5-1.3-0.9-2.2-1.2c-0.9-0.3-1.9-0.4-3-0.4h-4.2V64h4.2c1.2,0,2.2-0.1,3-0.4
		c0.9-0.3,1.6-0.7,2.2-1.3c0.6-0.5,1-1.2,1.3-2C189.9,59.5,190,58.7,190,57.7"/>
	<path class="st0" d="M237.2,46.8v8.1H237h-0.6h-1.9c-0.6,0-1-0.3-1.1-0.9c0-0.3-0.1-0.9-0.2-2h-7v24.3c0.6,0.1,1.1,0.2,1.4,0.2
		c0.3,0.1,0.6,0.1,0.7,0.1c0.1,0,0.2,0,0.3,0.1c0.8,0.2,1.2,0.7,1.2,1.5V81h-3.6h-6.4h-3.6v-2.8c0-0.8,0.4-1.3,1.2-1.5
		c0.1,0,0.2,0,0.3-0.1c0.1,0,0.4-0.1,0.7-0.1c0.3-0.1,0.8-0.1,1.4-0.2V52h-7c-0.1,1-0.2,1.7-0.2,2c-0.1,0.6-0.5,0.9-1.1,0.9l-1.9,0
		H209h-0.2v-8.1h0.7h0.1h26.9h0H237.2z"/>
	<path class="st0" d="M256.6,57.1l-0.8,4.4c0,0.3-0.2,0.5-0.3,0.6c-0.2,0.1-0.4,0.2-0.6,0.2c-0.2,0-0.6-0.1-1-0.2
		c-0.4-0.1-1-0.2-1.6-0.2c-1.2,0-2.3,0.3-3.1,1c-0.9,0.7-1.6,1.7-2.2,2.9v10.4c2,0.4,2,0.4,2.4,0.4c0.8,0.2,1.2,0.7,1.2,1.5V81h-3.6
		h-5.8h-3.6v-2.8c0-0.8,0.4-1.3,1.2-1.5c0.4-0.1,0.4-0.1,2.4-0.4V61.4c-2-0.4-2-0.4-2.4-0.4c-0.8-0.2-1.2-0.7-1.2-1.5v-2.8h3.6h3.4
		c0.6,0,1,0.1,1.3,0.3c0.2,0.2,0.4,0.6,0.5,1.1l0.4,2.9c0.9-1.5,1.9-2.7,3-3.5c1.2-0.9,2.5-1.3,3.9-1.3
		C254.8,56.3,255.8,56.6,256.6,57.1"/>
	<path class="st0" d="M286.6,78.2V81H283h-3.6c-0.8,0-1.3-0.4-1.5-1.1l-0.4-1.9c-0.5,0.5-1,1-1.6,1.4c-0.5,0.4-1.1,0.8-1.7,1.1
		c-0.6,0.3-1.3,0.5-2,0.7c-0.7,0.2-1.5,0.2-2.3,0.2c-1.3,0-2.5-0.2-3.5-0.7c-1-0.5-1.9-1.1-2.6-1.9c-0.7-0.8-1.2-1.8-1.6-2.9
		c-0.4-1.1-0.5-2.4-0.5-3.7V61.4c-2-0.4-2-0.4-2.4-0.4c-0.8-0.2-1.2-0.7-1.2-1.5v-2.8h3.6h5.8v15.4c0,1.5,0.3,2.6,1,3.4
		c0.7,0.8,1.7,1.2,3.1,1.2c1,0,2-0.2,2.8-0.7c0.9-0.5,1.7-1.1,2.5-1.9V61.4c-2-0.4-2-0.4-2.4-0.4c-0.8-0.2-1.2-0.7-1.2-1.5v-2.8h3.6
		h0h5.8v19.6c2,0.4,2,0.4,2.4,0.4C286.2,76.9,286.6,77.4,286.6,78.2"/>
	<path class="st0" d="M305.9,73.3c0,1.2-0.2,2.2-0.6,3.2c-0.4,1-1,1.8-1.9,2.6c-0.8,0.7-1.8,1.3-3,1.7c-1.2,0.4-2.6,0.6-4.2,0.6
		c-3,0-6-0.6-7.7-1.3v0v-2.4v-4.5h0.2h0.6h1.9c0.6,0,1,0.3,1.1,0.9c0,0.2,0.1,0.9,0.3,2.8c1.3,0.4,2.8,0.4,3.8,0.4
		c0.7,0,1.3-0.1,1.8-0.2c0.5-0.2,0.9-0.4,1.2-0.6c0.3-0.3,0.6-0.6,0.7-0.9c0.1-0.4,0.2-0.7,0.2-1.1c0-0.6-0.2-1-0.5-1.4
		c-0.3-0.4-0.8-0.7-1.3-0.9c-0.6-0.3-1.2-0.5-1.9-0.7c-0.7-0.2-1.5-0.4-2.2-0.7c-0.7-0.3-1.5-0.5-2.2-0.9c-0.7-0.3-1.4-0.8-1.9-1.3
		c-0.6-0.5-1-1.2-1.3-1.9c-0.3-0.8-0.5-1.7-0.5-2.7c0-1,0.2-1.9,0.6-2.8c0.4-0.9,1-1.7,1.7-2.4c0.8-0.7,1.7-1.2,2.9-1.6
		c1.1-0.4,2.5-0.6,4-0.6c2.3,0,3.7,0.2,7,1.3l0,0v6.9h-0.2h-0.6H302c-0.6,0-1-0.3-1.1-0.9c0-0.2-0.1-0.8-0.3-2.7
		c-0.6-0.2-1.7-0.3-2.8-0.3c-1.2,0-2.1,0.2-2.7,0.7c-0.7,0.5-1,1.1-1,1.9c0,0.5,0.2,1,0.5,1.3c0.3,0.4,0.8,0.7,1.3,0.9
		c0.6,0.3,1.2,0.5,1.9,0.7c0.7,0.2,1.4,0.4,2.2,0.7c0.7,0.3,1.5,0.5,2.2,0.9c0.7,0.3,1.3,0.7,1.9,1.2c0.6,0.5,1,1.1,1.3,1.8
		C305.7,71.5,305.9,72.3,305.9,73.3"/>
	<path class="st0" d="M312.4,79.6c-1.1-1.2-1.7-2.8-1.7-4.9V61.1h-2.5c-0.3,0-0.6-0.1-0.8-0.3c-0.2-0.2-0.3-0.5-0.3-0.9v-2.3
		l3.9-0.6l1.2-6.6c0.1-0.3,0.2-0.6,0.4-0.7c0.2-0.2,0.5-0.3,0.9-0.3h3v7.6h6.4v4.2h-6.4v13.2c0,0.8,0.2,1.3,0.6,1.8
		c0.4,0.4,0.9,0.6,1.5,0.6c0.4,0,0.7,0,0.9-0.1c0.2-0.1,0.5-0.2,0.6-0.3c0.2-0.1,0.3-0.2,0.5-0.3c0.1-0.1,0.3-0.1,0.4-0.1
		c0.2,0,0.3,0,0.4,0.1c0.1,0.1,0.2,0.2,0.4,0.4l1.7,2.8c-0.9,0.7-1.8,1.2-2.9,1.6c-1.1,0.4-2.2,0.5-3.4,0.5
		C315.2,81.4,313.6,80.8,312.4,79.6"/>
	<path class="st1" d="M370.7,51.1c-0.1,0-0.4,0.1-0.7,0.1c-0.3,0.1-0.8,0.1-1.4,0.2v24.8c0.6,0.1,1.1,0.2,1.4,0.2
		c0.3,0.1,0.6,0.1,0.7,0.1c0.1,0,0.2,0,0.3,0.1c0.8,0.2,1.2,0.7,1.2,1.5V81h-3.6h-6.4h-3.6v-2.8c0-0.8,0.4-1.3,1.2-1.5
		c0.1,0,0.2,0,0.3-0.1c0.1,0,0.4-0.1,0.7-0.1c0.3-0.1,0.8-0.1,1.4-0.2V66.1h-16v10.3c0.6,0.1,1.1,0.2,1.4,0.2
		c0.3,0.1,0.6,0.1,0.7,0.1c0.1,0,0.2,0,0.3,0.1c0.8,0.2,1.2,0.7,1.2,1.5V81h-3.6h-6.4h-3.6v-2.8c0-0.8,0.4-1.3,1.2-1.5
		c0.1,0,0.2,0,0.3-0.1c0.1,0,0.4-0.1,0.7-0.1c0.3-0.1,0.8-0.1,1.4-0.2V51.5c-0.6-0.1-1.1-0.2-1.4-0.2c-0.3-0.1-0.6-0.1-0.7-0.1
		c-0.1,0-0.2,0-0.3-0.1c-0.8-0.2-1.2-0.7-1.2-1.5v-2.8h3.6h6.4h3.6v2.8c0,0.8-0.4,1.3-1.2,1.5c-0.1,0-0.2,0-0.3,0.1
		c-0.1,0-0.4,0.1-0.7,0.1c-0.3,0.1-0.8,0.1-1.4,0.2v10h16v-10c-0.6-0.1-1.1-0.2-1.4-0.2c-0.3-0.1-0.6-0.1-0.7-0.1
		c-0.1,0-0.2,0-0.3-0.1c-0.8-0.2-1.2-0.7-1.2-1.5v-2.8h3.6h6.4h3.6v2.8c0,0.8-0.4,1.3-1.2,1.5C370.9,51.1,370.8,51.1,370.7,51.1"/>
	<path class="st1" d="M404.6,78.2V81H404h-2.9h-2.8c-0.6,0-1-0.1-1.4-0.3c-0.4-0.2-0.7-0.5-1-0.9l-7.2-11c-0.3-0.4-0.6-0.7-0.9-0.9
		c-0.3-0.2-0.8-0.3-1.4-0.3H384v8.7c0.6,0.1,1.1,0.2,1.4,0.2c0.3,0.1,0.6,0.1,0.7,0.1c0.1,0,0.2,0,0.3,0.1c0.8,0.2,1.2,0.7,1.2,1.5
		V81H384h-6.4H374v-2.8c0-0.8,0.4-1.3,1.2-1.5c0.1,0,0.2,0,0.3-0.1c0.1,0,0.4-0.1,0.7-0.1c0.3-0.1,0.8-0.1,1.4-0.2V51.5
		c-0.6-0.1-1.1-0.2-1.4-0.2c-0.3-0.1-0.6-0.1-0.7-0.1c-0.1,0-0.2,0-0.3-0.1c-0.8-0.2-1.2-0.7-1.2-1.5v-2.8h3.6h10.1
		c2.3,0,4.3,0.2,6,0.7c1.7,0.5,3,1.2,4.1,2c1.1,0.9,1.8,1.9,2.3,3.1c0.5,1.2,0.7,2.5,0.7,4c0,1.2-0.2,2.2-0.5,3.3
		c-0.3,1-0.8,2-1.5,2.8c-0.6,0.8-1.4,1.6-2.4,2.2c-0.9,0.6-2,1.1-3.2,1.5c0.8,0.5,1.5,1.1,2.1,2l5.4,7.9c0.6,0.1,1.1,0.2,1.5,0.2
		c0.4,0.1,0.7,0.1,0.8,0.1c0.2,0,0.3,0,0.4,0.1C404.3,76.9,404.6,77.4,404.6,78.2 M393,61.4c0.6-0.5,1-1.2,1.3-1.9
		c0.3-0.7,0.4-1.5,0.4-2.4c0-1.7-0.6-3.1-1.7-4c-1.1-0.9-2.9-1.4-5.2-1.4H384v11.4h3.6c1.2,0,2.2-0.1,3.1-0.5
		C391.6,62.3,392.4,61.9,393,61.4"/>
	<path class="st2" d="M103.8,87.4v1.1v0.6v1.4h-0.1h-0.2h-0.7c-0.2,0-0.3-0.1-0.4-0.3c0-0.1-0.1-0.5-0.1-1.1h-3.8v3.3h4v1.7h-4v3.4
		h3.8c0.1-0.6,0.1-0.9,0.1-1.1c0-0.2,0.2-0.3,0.4-0.3h0.7h0.2h0.1v1.4v0.6v1.2h-7.5H95v-1c0-0.3,0.1-0.5,0.4-0.5c0,0,0.1,0,0.1,0
		c0,0,0.1,0,0.2,0c0.1,0,0.3-0.1,0.5-0.1v-8.6c-0.2,0-0.4-0.1-0.5-0.1c-0.1,0-0.2,0-0.2,0c0,0-0.1,0-0.1,0c-0.3-0.1-0.4-0.2-0.4-0.5
		v-1h1.2H103.8z"/>
	<path class="st2" d="M119.2,98.3v1H118h-2v-5.4c0-0.5-0.1-0.9-0.4-1.2c-0.2-0.3-0.6-0.4-1.1-0.4c-0.3,0-0.7,0.1-1,0.2
		c-0.3,0.2-0.6,0.4-0.9,0.6v4.5c0.2,0,0.4,0.1,0.5,0.1c0.1,0,0.2,0,0.2,0c0,0,0.1,0,0.1,0c0.3,0.1,0.4,0.2,0.4,0.5v1h-1.2h-2h-1.2
		v-1c0-0.3,0.1-0.5,0.4-0.5c0,0,0.1,0,0.1,0c0,0,0.1,0,0.2,0c0.1,0,0.3-0.1,0.5-0.1v-5.2c-0.2,0-0.4-0.1-0.5-0.1c-0.1,0-0.2,0-0.2,0
		c0,0-0.1,0-0.1,0c-0.3-0.1-0.4-0.2-0.4-0.5v-1h1.2h1.2c0.3,0,0.4,0.1,0.5,0.4l0.1,0.7c0.2-0.2,0.3-0.3,0.5-0.5
		c0.2-0.1,0.4-0.3,0.6-0.4c0.2-0.1,0.4-0.2,0.7-0.2c0.2-0.1,0.5-0.1,0.8-0.1c0.5,0,0.9,0.1,1.2,0.2c0.4,0.2,0.7,0.4,0.9,0.7
		c0.2,0.3,0.4,0.6,0.5,1c0.1,0.4,0.2,0.8,0.2,1.3v3.7c0.2,0,0.4,0.1,0.5,0.1c0.1,0,0.2,0,0.2,0c0,0,0.1,0,0.1,0
		C119.1,97.9,119.2,98.1,119.2,98.3"/>
	<path class="st2" d="M129.4,90.8c0.3,0.1,0.6,0.2,0.9,0.3h2.4v0.8c0,0.1,0,0.2-0.1,0.3c-0.1,0.1-0.2,0.1-0.3,0.1l-0.8,0.1
		c0.1,0.1,0.1,0.3,0.1,0.5c0,0.2,0,0.3,0,0.5c0,0.4-0.1,0.8-0.3,1.1c-0.2,0.3-0.4,0.6-0.7,0.9c-0.3,0.2-0.6,0.4-1,0.5
		c-0.4,0.1-0.8,0.2-1.3,0.2c-0.3,0-0.6,0-0.9-0.1c-0.3,0.2-0.4,0.3-0.4,0.5c0,0.2,0.1,0.3,0.2,0.4c0.2,0.1,0.4,0.1,0.6,0.2
		c0.3,0,0.5,0.1,0.9,0.1c0.3,0,0.7,0,1,0.1c0.3,0,0.7,0.1,1,0.1c0.3,0.1,0.6,0.2,0.9,0.3c0.3,0.1,0.5,0.3,0.6,0.6
		c0.2,0.3,0.2,0.6,0.2,1c0,0.4-0.1,0.7-0.3,1.1c-0.2,0.4-0.4,0.7-0.8,0.9c-0.3,0.3-0.8,0.5-1.3,0.7c-0.5,0.2-1.1,0.3-1.7,0.3
		c-0.6,0-1.2-0.1-1.7-0.2c-0.5-0.1-0.9-0.3-1.2-0.5c-0.3-0.2-0.5-0.4-0.7-0.7c-0.2-0.3-0.2-0.5-0.2-0.8c0-0.4,0.1-0.7,0.4-1
		c0.2-0.3,0.6-0.5,1-0.6c-0.2-0.1-0.4-0.3-0.5-0.5c-0.1-0.2-0.2-0.4-0.2-0.7c0-0.1,0-0.3,0.1-0.4c0-0.1,0.1-0.3,0.2-0.4
		c0.1-0.1,0.2-0.3,0.3-0.4c0.1-0.1,0.3-0.2,0.5-0.3c-0.4-0.2-0.8-0.5-1-0.9c-0.2-0.4-0.4-0.8-0.4-1.3c0-0.4,0.1-0.8,0.3-1.1
		c0.2-0.3,0.4-0.6,0.7-0.9c0.3-0.2,0.7-0.4,1.1-0.5c0.4-0.1,0.9-0.2,1.3-0.2C128.8,90.7,129.1,90.8,129.4,90.8 M130.5,99.3
		c-0.1-0.1-0.2-0.2-0.4-0.2c-0.2-0.1-0.4-0.1-0.6-0.1c-0.2,0-0.5,0-0.7-0.1c-0.3,0-0.5,0-0.8,0c-0.3,0-0.5,0-0.8-0.1
		c-0.2,0.1-0.4,0.3-0.6,0.4c-0.1,0.2-0.2,0.4-0.2,0.6c0,0.1,0,0.3,0.1,0.4c0.1,0.1,0.2,0.2,0.4,0.3c0.2,0.1,0.4,0.2,0.6,0.2
		c0.3,0.1,0.6,0.1,0.9,0.1c0.4,0,0.7,0,1-0.1c0.3-0.1,0.5-0.1,0.7-0.2c0.2-0.1,0.3-0.2,0.4-0.4c0.1-0.1,0.1-0.3,0.1-0.5
		C130.7,99.5,130.6,99.4,130.5,99.3 M129.1,94.8c0.2-0.1,0.3-0.2,0.5-0.3c0.1-0.1,0.2-0.3,0.3-0.4c0.1-0.2,0.1-0.4,0.1-0.6
		c0-0.4-0.1-0.7-0.4-1c-0.2-0.2-0.6-0.4-1.1-0.4c-0.5,0-0.9,0.1-1.1,0.4c-0.3,0.2-0.4,0.6-0.4,1c0,0.2,0,0.4,0.1,0.6
		c0.1,0.2,0.2,0.3,0.3,0.4c0.1,0.1,0.3,0.2,0.5,0.3c0.2,0.1,0.4,0.1,0.7,0.1C128.7,94.9,128.9,94.9,129.1,94.8"/>
	<path class="st2" d="M146.2,98.3v1h-1h-0.2h-0.7c-0.2,0-0.3,0-0.5-0.1c-0.1-0.1-0.2-0.2-0.2-0.3l-0.2-0.6c-0.2,0.2-0.4,0.4-0.6,0.5
		c-0.2,0.1-0.4,0.3-0.6,0.4c-0.2,0.1-0.5,0.2-0.7,0.2c-0.2,0-0.5,0.1-0.8,0.1c-0.4,0-0.7,0-1-0.1c-0.3-0.1-0.6-0.2-0.8-0.4
		c-0.2-0.2-0.4-0.4-0.5-0.7c-0.1-0.3-0.2-0.6-0.2-1c0-0.3,0.1-0.6,0.2-0.9c0.2-0.3,0.4-0.6,0.8-0.8c0.4-0.3,0.9-0.5,1.6-0.6
		c0.6-0.2,1.4-0.2,2.4-0.2V94c0-0.6-0.1-1-0.4-1.3c-0.2-0.3-0.6-0.4-1-0.4c-0.3,0-0.6,0-0.8,0.1c-0.2,0.1-0.4,0.2-0.6,0.3
		c-0.2,0.1-0.3,0.2-0.4,0.3c-0.1,0.1-0.3,0.1-0.5,0.1c-0.1,0-0.3,0-0.4-0.1c-0.1-0.1-0.2-0.2-0.2-0.3l-0.4-0.6
		c1-0.9,2.1-1.3,3.5-1.3c0.5,0,0.9,0.1,1.3,0.2c0.4,0.2,0.7,0.4,1,0.7c0.3,0.3,0.5,0.6,0.6,1c0.1,0.4,0.2,0.8,0.2,1.3v3.7
		c0.2,0,0.3,0.1,0.4,0.1c0.1,0,0.2,0,0.2,0C146,97.9,146.2,98,146.2,98.3 M143.2,95.7c-0.6,0-1.1,0-1.5,0.1c-0.4,0.1-0.7,0.2-1,0.3
		c-0.2,0.1-0.4,0.2-0.5,0.4c-0.1,0.2-0.2,0.3-0.2,0.5c0,0.4,0.1,0.6,0.3,0.8c0.2,0.2,0.5,0.2,0.8,0.2c0.2,0,0.4,0,0.6-0.1
		c0.2,0,0.3-0.1,0.5-0.2c0.2-0.1,0.3-0.2,0.5-0.3c0.1-0.1,0.3-0.2,0.4-0.4V95.7z"/>
	<path class="st2" d="M156.3,90.8c0.3,0.1,0.6,0.2,0.9,0.3h2.4v0.8c0,0.1,0,0.2-0.1,0.3c-0.1,0.1-0.2,0.1-0.3,0.1l-0.8,0.1
		c0.1,0.1,0.1,0.3,0.1,0.5c0,0.2,0,0.3,0,0.5c0,0.4-0.1,0.8-0.3,1.1c-0.2,0.3-0.4,0.6-0.7,0.9c-0.3,0.2-0.6,0.4-1,0.5
		c-0.4,0.1-0.8,0.2-1.3,0.2c-0.3,0-0.6,0-0.9-0.1c-0.3,0.2-0.4,0.3-0.4,0.5c0,0.2,0.1,0.3,0.2,0.4c0.2,0.1,0.4,0.1,0.6,0.2
		c0.3,0,0.5,0.1,0.9,0.1c0.3,0,0.7,0,1,0.1c0.3,0,0.7,0.1,1,0.1c0.3,0.1,0.6,0.2,0.9,0.3c0.3,0.1,0.5,0.3,0.6,0.6
		c0.2,0.3,0.2,0.6,0.2,1c0,0.4-0.1,0.7-0.3,1.1c-0.2,0.4-0.4,0.7-0.8,0.9c-0.3,0.3-0.8,0.5-1.3,0.7c-0.5,0.2-1.1,0.3-1.7,0.3
		c-0.6,0-1.2-0.1-1.7-0.2c-0.5-0.1-0.9-0.3-1.2-0.5c-0.3-0.2-0.5-0.4-0.7-0.7c-0.2-0.3-0.2-0.5-0.2-0.8c0-0.4,0.1-0.7,0.4-1
		c0.2-0.3,0.6-0.5,1-0.6c-0.2-0.1-0.4-0.3-0.5-0.5c-0.1-0.2-0.2-0.4-0.2-0.7c0-0.1,0-0.3,0.1-0.4c0-0.1,0.1-0.3,0.2-0.4
		c0.1-0.1,0.2-0.3,0.3-0.4c0.1-0.1,0.3-0.2,0.5-0.3c-0.4-0.2-0.8-0.5-1-0.9c-0.2-0.4-0.4-0.8-0.4-1.3c0-0.4,0.1-0.8,0.3-1.1
		c0.2-0.3,0.4-0.6,0.7-0.9c0.3-0.2,0.7-0.4,1.1-0.5c0.4-0.1,0.9-0.2,1.3-0.2C155.7,90.7,156,90.8,156.3,90.8 M157.4,99.3
		c-0.1-0.1-0.2-0.2-0.4-0.2c-0.2-0.1-0.4-0.1-0.6-0.1c-0.2,0-0.5,0-0.7-0.1c-0.3,0-0.5,0-0.8,0c-0.3,0-0.5,0-0.8-0.1
		c-0.2,0.1-0.4,0.3-0.6,0.4c-0.1,0.2-0.2,0.4-0.2,0.6c0,0.1,0,0.3,0.1,0.4c0.1,0.1,0.2,0.2,0.4,0.3c0.2,0.1,0.4,0.2,0.6,0.2
		c0.3,0.1,0.6,0.1,0.9,0.1c0.4,0,0.7,0,1-0.1c0.3-0.1,0.5-0.1,0.7-0.2c0.2-0.1,0.3-0.2,0.4-0.4c0.1-0.1,0.1-0.3,0.1-0.5
		C157.5,99.5,157.5,99.4,157.4,99.3 M156,94.8c0.2-0.1,0.3-0.2,0.5-0.3c0.1-0.1,0.2-0.3,0.3-0.4c0.1-0.2,0.1-0.4,0.1-0.6
		c0-0.4-0.1-0.7-0.4-1c-0.2-0.2-0.6-0.4-1.1-0.4c-0.5,0-0.9,0.1-1.1,0.4c-0.2,0.2-0.4,0.6-0.4,1c0,0.2,0,0.4,0.1,0.6
		c0.1,0.2,0.2,0.3,0.3,0.4c0.1,0.1,0.3,0.2,0.5,0.3c0.2,0.1,0.4,0.1,0.7,0.1C155.6,94.9,155.8,94.9,156,94.8"/>
	<path class="st2" d="M170.6,91c0.4,0.2,0.8,0.4,1.2,0.7c0.3,0.3,0.6,0.7,0.8,1.2c0.2,0.5,0.3,1,0.3,1.6c0,0.2,0,0.3,0,0.4
		c0,0.1,0,0.2-0.1,0.2c0,0.1-0.1,0.1-0.1,0.1c-0.1,0-0.1,0-0.2,0h-5.2c0.1,0.9,0.3,1.5,0.7,1.9c0.4,0.4,0.9,0.6,1.6,0.6
		c0.3,0,0.6,0,0.9-0.1c0.2-0.1,0.4-0.2,0.6-0.3c0.2-0.1,0.3-0.2,0.5-0.3c0.1-0.1,0.3-0.1,0.4-0.1c0.1,0,0.2,0,0.2,0
		c0.1,0,0.1,0.1,0.2,0.1l0.6,0.7c-0.2,0.3-0.5,0.5-0.8,0.7c-0.3,0.2-0.6,0.3-0.9,0.4c-0.3,0.1-0.6,0.2-0.9,0.2
		c-0.3,0-0.6,0.1-0.9,0.1c-0.6,0-1.1-0.1-1.6-0.3c-0.5-0.2-0.9-0.5-1.3-0.9c-0.4-0.4-0.7-0.9-0.9-1.4c-0.2-0.6-0.3-1.2-0.3-1.9
		c0-0.6,0.1-1.1,0.3-1.6c0.2-0.5,0.5-0.9,0.8-1.3c0.3-0.4,0.8-0.7,1.3-0.9c0.5-0.2,1.1-0.3,1.7-0.3C169.6,90.7,170.1,90.8,170.6,91
		 M167.7,92.7c-0.3,0.3-0.5,0.8-0.6,1.4h3.8c0-0.3,0-0.5-0.1-0.7c-0.1-0.2-0.2-0.4-0.3-0.6c-0.1-0.2-0.3-0.3-0.6-0.4
		c-0.2-0.1-0.5-0.2-0.8-0.2C168.5,92.2,168.1,92.4,167.7,92.7"/>
	<rect x="187.1" y="86.6" class="st2" width="1.6" height="15.5"/>
	<path class="st2" d="M217.9,88.9c0,0-0.1,0-0.2,0c-0.1,0-0.3,0.1-0.5,0.1v8.6c0.2,0,0.4,0.1,0.5,0.1c0.1,0,0.2,0,0.2,0
		c0,0,0.1,0,0.1,0c0.3,0.1,0.4,0.2,0.4,0.5v1h-1.2h-1.9h-1.5v-1c0-0.3,0.1-0.5,0.4-0.5c0,0,0.4-0.1,1.1-0.2v-6c0-0.1,0-0.3,0-0.5
		c0-0.2,0-0.3,0-0.5l-3.6,6.7c-0.1,0.2-0.2,0.3-0.3,0.4c-0.1,0.1-0.3,0.1-0.5,0.1h-0.3c-0.2,0-0.3,0-0.5-0.1
		c-0.1-0.1-0.2-0.2-0.3-0.4l-3.6-6.8c0,0.2,0,0.4,0,0.5c0,0.2,0,0.3,0,0.5v6c0.7,0.1,1,0.1,1.1,0.2c0.3,0.1,0.4,0.2,0.4,0.5v1h-1.5
		h-1.9h-1.2v-1c0-0.3,0.1-0.5,0.4-0.5c0,0,0.1,0,0.1,0c0,0,0.1,0,0.2,0c0.1,0,0.3-0.1,0.5-0.1v-8.6c-0.2,0-0.4-0.1-0.5-0.1
		c-0.1,0-0.2,0-0.2,0c0,0-0.1,0-0.1,0c-0.3-0.1-0.4-0.2-0.4-0.5v-1h1.2h1.7c0.1,0,0.2,0,0.3,0c0.1,0,0.1,0,0.2,0
		c0.1,0,0.1,0.1,0.2,0.1c0,0,0.1,0.1,0.1,0.2l3.5,6.6c0.1,0.2,0.2,0.4,0.3,0.5c0.1,0.2,0.2,0.4,0.2,0.6c0.1-0.2,0.2-0.4,0.2-0.6
		c0.1-0.2,0.2-0.4,0.3-0.6l3.5-6.6c0-0.1,0.1-0.1,0.1-0.2c0,0,0.1-0.1,0.2-0.1c0.1,0,0.1,0,0.2,0c0.1,0,0.2,0,0.3,0h1.7h1.2v1
		c0,0.3-0.1,0.5-0.4,0.5C218,88.9,218,88.9,217.9,88.9"/>
	<path class="st2" d="M232,98.3v1h-1h-0.2H230c-0.2,0-0.3,0-0.5-0.1c-0.1-0.1-0.2-0.2-0.2-0.3l-0.2-0.6c-0.2,0.2-0.4,0.4-0.6,0.5
		c-0.2,0.1-0.4,0.3-0.6,0.4c-0.2,0.1-0.5,0.2-0.7,0.2c-0.2,0-0.5,0.1-0.8,0.1c-0.4,0-0.7,0-1-0.1c-0.3-0.1-0.6-0.2-0.8-0.4
		c-0.2-0.2-0.4-0.4-0.5-0.7c-0.1-0.3-0.2-0.6-0.2-1c0-0.3,0.1-0.6,0.2-0.9c0.2-0.3,0.4-0.6,0.8-0.8c0.4-0.3,0.9-0.5,1.6-0.6
		c0.6-0.2,1.4-0.2,2.4-0.2V94c0-0.6-0.1-1-0.4-1.3c-0.2-0.3-0.6-0.4-1-0.4c-0.3,0-0.6,0-0.8,0.1c-0.2,0.1-0.4,0.2-0.6,0.3
		c-0.2,0.1-0.3,0.2-0.4,0.3c-0.1,0.1-0.3,0.1-0.5,0.1c-0.1,0-0.3,0-0.4-0.1c-0.1-0.1-0.2-0.2-0.2-0.3l-0.4-0.6
		c1-0.9,2.1-1.3,3.5-1.3c0.5,0,0.9,0.1,1.3,0.2c0.4,0.2,0.7,0.4,1,0.7c0.3,0.3,0.5,0.6,0.6,1c0.1,0.4,0.2,0.8,0.2,1.3v3.7
		c0.2,0,0.3,0.1,0.4,0.1c0.1,0,0.2,0,0.2,0C231.8,97.9,232,98,232,98.3 M229,95.7c-0.6,0-1.1,0-1.5,0.1c-0.4,0.1-0.7,0.2-1,0.3
		c-0.2,0.1-0.4,0.2-0.5,0.4c-0.1,0.2-0.1,0.3-0.1,0.5c0,0.4,0.1,0.6,0.3,0.8c0.2,0.2,0.5,0.2,0.8,0.2c0.2,0,0.4,0,0.6-0.1
		c0.2,0,0.3-0.1,0.5-0.2c0.2-0.1,0.3-0.2,0.5-0.3c0.1-0.1,0.3-0.2,0.4-0.4V95.7z"/>
	<path class="st2" d="M247.3,98.3v1h-1.2h-2v-5.4c0-0.5-0.1-0.9-0.4-1.2c-0.2-0.3-0.6-0.4-1.1-0.4c-0.4,0-0.7,0.1-1,0.2
		c-0.3,0.2-0.6,0.4-0.9,0.6v4.5c0.2,0,0.4,0.1,0.5,0.1c0.1,0,0.2,0,0.2,0c0,0,0.1,0,0.1,0c0.3,0.1,0.4,0.2,0.4,0.5v1h-1.2h-2h-1.2
		v-1c0-0.3,0.1-0.5,0.4-0.5c0,0,0.1,0,0.1,0c0,0,0.1,0,0.2,0c0.1,0,0.3-0.1,0.5-0.1v-5.2c-0.2,0-0.4-0.1-0.5-0.1c-0.1,0-0.2,0-0.2,0
		c0,0-0.1,0-0.1,0c-0.3-0.1-0.4-0.2-0.4-0.5v-1h1.2h1.2c0.3,0,0.4,0.1,0.5,0.4l0.1,0.7c0.2-0.2,0.3-0.3,0.5-0.5
		c0.2-0.1,0.4-0.3,0.6-0.4c0.2-0.1,0.4-0.2,0.7-0.2c0.2-0.1,0.5-0.1,0.8-0.1c0.5,0,0.9,0.1,1.2,0.2c0.4,0.2,0.7,0.4,0.9,0.7
		c0.2,0.3,0.4,0.6,0.5,1c0.1,0.4,0.2,0.8,0.2,1.3v3.7c0.2,0,0.4,0.1,0.5,0.1c0.1,0,0.2,0,0.2,0c0,0,0.1,0,0.1,0
		C247.2,97.9,247.3,98.1,247.3,98.3"/>
	<path class="st2" d="M260.8,98.3v1h-1h-0.2h-0.7c-0.2,0-0.3,0-0.5-0.1c-0.1-0.1-0.2-0.2-0.2-0.3l-0.2-0.6c-0.2,0.2-0.4,0.4-0.6,0.5
		c-0.2,0.1-0.4,0.3-0.6,0.4c-0.2,0.1-0.5,0.2-0.7,0.2c-0.2,0-0.5,0.1-0.8,0.1c-0.4,0-0.7,0-1-0.1c-0.3-0.1-0.6-0.2-0.8-0.4
		c-0.2-0.2-0.4-0.4-0.5-0.7c-0.1-0.3-0.2-0.6-0.2-1c0-0.3,0.1-0.6,0.2-0.9c0.2-0.3,0.4-0.6,0.8-0.8c0.4-0.3,0.9-0.5,1.6-0.6
		c0.6-0.2,1.4-0.2,2.4-0.2V94c0-0.6-0.1-1-0.4-1.3c-0.2-0.3-0.6-0.4-1-0.4c-0.3,0-0.6,0-0.8,0.1c-0.2,0.1-0.4,0.2-0.6,0.3
		c-0.2,0.1-0.3,0.2-0.4,0.3c-0.1,0.1-0.3,0.1-0.5,0.1c-0.1,0-0.3,0-0.4-0.1c-0.1-0.1-0.2-0.2-0.2-0.3l-0.4-0.6
		c1-0.9,2.1-1.3,3.5-1.3c0.5,0,0.9,0.1,1.3,0.2c0.4,0.2,0.7,0.4,1,0.7c0.3,0.3,0.5,0.6,0.6,1c0.1,0.4,0.2,0.8,0.2,1.3v3.7
		c0.2,0,0.3,0.1,0.4,0.1c0.1,0,0.2,0,0.2,0C260.7,97.9,260.8,98,260.8,98.3 M257.8,95.7c-0.6,0-1.1,0-1.5,0.1
		c-0.4,0.1-0.7,0.2-1,0.3c-0.2,0.1-0.4,0.2-0.5,0.4c-0.1,0.2-0.1,0.3-0.1,0.5c0,0.4,0.1,0.6,0.3,0.8c0.2,0.2,0.5,0.2,0.8,0.2
		c0.2,0,0.4,0,0.6-0.1c0.2,0,0.3-0.1,0.5-0.2c0.2-0.1,0.3-0.2,0.5-0.3c0.1-0.1,0.3-0.2,0.4-0.4V95.7z"/>
	<path class="st2" d="M271,90.8c0.3,0.1,0.6,0.2,0.9,0.3h2.4v0.8c0,0.1,0,0.2-0.1,0.3c-0.1,0.1-0.2,0.1-0.3,0.1l-0.8,0.1
		c0.1,0.1,0.1,0.3,0.1,0.5c0,0.2,0,0.3,0,0.5c0,0.4-0.1,0.8-0.3,1.1c-0.2,0.3-0.4,0.6-0.7,0.9c-0.3,0.2-0.6,0.4-1,0.5
		c-0.4,0.1-0.8,0.2-1.3,0.2c-0.3,0-0.6,0-0.9-0.1c-0.3,0.2-0.4,0.3-0.4,0.5c0,0.2,0.1,0.3,0.2,0.4c0.2,0.1,0.4,0.1,0.6,0.2
		c0.3,0,0.5,0.1,0.9,0.1c0.3,0,0.7,0,1,0.1c0.3,0,0.7,0.1,1,0.1c0.3,0.1,0.6,0.2,0.9,0.3c0.3,0.1,0.5,0.3,0.6,0.6
		c0.2,0.3,0.2,0.6,0.2,1c0,0.4-0.1,0.7-0.3,1.1c-0.2,0.4-0.4,0.7-0.8,0.9c-0.3,0.3-0.8,0.5-1.3,0.7c-0.5,0.2-1.1,0.3-1.7,0.3
		c-0.6,0-1.2-0.1-1.7-0.2c-0.5-0.1-0.9-0.3-1.2-0.5c-0.3-0.2-0.5-0.4-0.7-0.7c-0.2-0.3-0.2-0.5-0.2-0.8c0-0.4,0.1-0.7,0.4-1
		c0.2-0.3,0.6-0.5,1-0.6c-0.2-0.1-0.4-0.3-0.5-0.5c-0.1-0.2-0.2-0.4-0.2-0.7c0-0.1,0-0.3,0.1-0.4c0-0.1,0.1-0.3,0.2-0.4
		c0.1-0.1,0.2-0.3,0.3-0.4c0.1-0.1,0.3-0.2,0.5-0.3c-0.4-0.2-0.8-0.5-1-0.9c-0.2-0.4-0.4-0.8-0.4-1.3c0-0.4,0.1-0.8,0.3-1.1
		c0.2-0.3,0.4-0.6,0.7-0.9c0.3-0.2,0.7-0.4,1.1-0.5c0.4-0.1,0.9-0.2,1.3-0.2C270.3,90.7,270.7,90.8,271,90.8 M272,99.3
		c-0.1-0.1-0.2-0.2-0.4-0.2c-0.2-0.1-0.4-0.1-0.6-0.1c-0.2,0-0.5,0-0.7-0.1c-0.3,0-0.5,0-0.8,0c-0.3,0-0.5,0-0.8-0.1
		c-0.2,0.1-0.4,0.3-0.6,0.4c-0.1,0.2-0.2,0.4-0.2,0.6c0,0.1,0,0.3,0.1,0.4c0.1,0.1,0.2,0.2,0.4,0.3c0.2,0.1,0.4,0.2,0.6,0.2
		c0.3,0.1,0.6,0.1,0.9,0.1c0.4,0,0.7,0,1-0.1c0.3-0.1,0.5-0.1,0.7-0.2c0.2-0.1,0.3-0.2,0.4-0.4c0.1-0.1,0.1-0.3,0.1-0.5
		C272.2,99.5,272.1,99.4,272,99.3 M270.6,94.8c0.2-0.1,0.3-0.2,0.5-0.3c0.1-0.1,0.2-0.3,0.3-0.4c0.1-0.2,0.1-0.4,0.1-0.6
		c0-0.4-0.1-0.7-0.4-1c-0.2-0.2-0.6-0.4-1.1-0.4c-0.5,0-0.9,0.1-1.1,0.4c-0.2,0.2-0.4,0.6-0.4,1c0,0.2,0,0.4,0.1,0.6
		c0.1,0.2,0.2,0.3,0.3,0.4c0.1,0.1,0.3,0.2,0.5,0.3c0.2,0.1,0.4,0.1,0.7,0.1C270.2,94.9,270.4,94.9,270.6,94.8"/>
	<path class="st2" d="M285.2,91c0.4,0.2,0.8,0.4,1.2,0.7c0.3,0.3,0.6,0.7,0.8,1.2c0.2,0.5,0.3,1,0.3,1.6c0,0.2,0,0.3,0,0.4
		c0,0.1,0,0.2-0.1,0.2c0,0.1-0.1,0.1-0.1,0.1c-0.1,0-0.1,0-0.2,0h-5.2c0.1,0.9,0.3,1.5,0.7,1.9c0.4,0.4,0.9,0.6,1.6,0.6
		c0.3,0,0.6,0,0.8-0.1c0.2-0.1,0.4-0.2,0.6-0.3c0.2-0.1,0.3-0.2,0.5-0.3c0.1-0.1,0.3-0.1,0.4-0.1c0.1,0,0.2,0,0.2,0
		c0.1,0,0.1,0.1,0.2,0.1l0.6,0.7c-0.2,0.3-0.5,0.5-0.8,0.7c-0.3,0.2-0.6,0.3-0.9,0.4c-0.3,0.1-0.6,0.2-0.9,0.2
		c-0.3,0-0.6,0.1-0.9,0.1c-0.6,0-1.1-0.1-1.6-0.3c-0.5-0.2-0.9-0.5-1.3-0.9c-0.4-0.4-0.7-0.9-0.9-1.4c-0.2-0.6-0.3-1.2-0.3-1.9
		c0-0.6,0.1-1.1,0.3-1.6c0.2-0.5,0.5-0.9,0.8-1.3c0.3-0.4,0.8-0.7,1.3-0.9c0.5-0.2,1.1-0.3,1.7-0.3C284.3,90.7,284.8,90.8,285.2,91
		 M282.4,92.7c-0.3,0.3-0.5,0.8-0.6,1.4h3.8c0-0.3,0-0.5-0.1-0.7c-0.1-0.2-0.2-0.4-0.3-0.6c-0.1-0.2-0.3-0.3-0.6-0.4
		c-0.2-0.1-0.5-0.2-0.8-0.2C283.2,92.2,282.7,92.4,282.4,92.7"/>
	<rect x="301.8" y="86.6" class="st2" width="1.6" height="15.5"/>
	<path class="st2" d="M327.3,91.2c0,0.6-0.1,1.1-0.3,1.6c-0.2,0.5-0.5,0.9-0.9,1.2c-0.4,0.3-0.9,0.6-1.4,0.8c-0.6,0.2-1.2,0.3-2,0.3
		h-1.5v2.6c0.2,0,0.4,0.1,0.5,0.1c0.1,0,0.2,0,0.2,0c0,0,0.1,0,0.1,0c0.3,0.1,0.4,0.2,0.4,0.5v1h-1.2H319h-1.2v-1
		c0-0.3,0.1-0.5,0.4-0.5c0,0,0.1,0,0.1,0c0,0,0.1,0,0.2,0c0.1,0,0.3,0,0.5-0.1v-8.6c-0.2,0-0.4-0.1-0.5-0.1c-0.1,0-0.2,0-0.2,0
		c0,0-0.1,0-0.1,0c-0.3-0.1-0.4-0.2-0.4-0.5v-1h1.2h3.7c0.8,0,1.5,0.1,2.1,0.3c0.6,0.2,1.1,0.4,1.4,0.8c0.4,0.3,0.7,0.7,0.8,1.2
		C327.2,90.2,327.3,90.7,327.3,91.2 M325.1,91.2c0-0.3,0-0.6-0.1-0.9c-0.1-0.3-0.2-0.5-0.4-0.7c-0.2-0.2-0.4-0.3-0.7-0.4
		c-0.3-0.1-0.7-0.1-1.1-0.1h-1.5v4.3h1.5c0.4,0,0.8-0.1,1.1-0.2c0.3-0.1,0.6-0.2,0.7-0.4c0.2-0.2,0.3-0.4,0.4-0.7
		C325,91.9,325.1,91.6,325.1,91.2"/>
	<path class="st2" d="M339.4,91l-0.3,1.5c0,0.1,0,0.2-0.1,0.2c-0.1,0-0.1,0.1-0.2,0.1c-0.1,0-0.2,0-0.3-0.1c-0.1,0-0.3-0.1-0.6-0.1
		c-0.4,0-0.8,0.1-1.1,0.3c-0.3,0.2-0.6,0.6-0.8,1v3.6c0.7,0.1,0.7,0.1,0.8,0.1c0.3,0.1,0.4,0.2,0.4,0.5v1H336h-2h-1.2v-1
		c0-0.3,0.1-0.5,0.4-0.5c0.1,0,0.1,0,0.8-0.1v-5.2c-0.7-0.1-0.7-0.1-0.8-0.2c-0.3-0.1-0.4-0.2-0.4-0.5v-1h1.2h1.2
		c0.2,0,0.4,0,0.4,0.1c0.1,0.1,0.1,0.2,0.2,0.4l0.1,1c0.3-0.5,0.7-0.9,1.1-1.2c0.4-0.3,0.9-0.5,1.4-0.5
		C338.8,90.7,339.1,90.8,339.4,91"/>
	<path class="st2" d="M350.5,91.1c0.5,0.2,0.9,0.5,1.3,0.9c0.4,0.4,0.6,0.8,0.8,1.4c0.2,0.5,0.3,1.1,0.3,1.8c0,0.7-0.1,1.3-0.3,1.8
		c-0.2,0.5-0.5,1-0.8,1.4c-0.4,0.4-0.8,0.7-1.3,0.9c-0.5,0.2-1.1,0.3-1.7,0.3c-0.6,0-1.2-0.1-1.7-0.3c-0.5-0.2-1-0.5-1.3-0.9
		c-0.4-0.4-0.6-0.8-0.8-1.4c-0.2-0.5-0.3-1.1-0.3-1.8c0-0.7,0.1-1.3,0.3-1.8c0.2-0.5,0.5-1,0.8-1.4c0.4-0.4,0.8-0.7,1.3-0.9
		c0.5-0.2,1.1-0.3,1.7-0.3C349.4,90.7,350,90.8,350.5,91.1 M350.4,97.2c0.3-0.5,0.5-1.2,0.5-2.1c0-0.9-0.2-1.6-0.5-2.1
		c-0.3-0.5-0.9-0.7-1.6-0.7c-0.7,0-1.2,0.2-1.6,0.7c-0.3,0.5-0.5,1.2-0.5,2.1c0,0.9,0.2,1.6,0.5,2.1c0.3,0.5,0.9,0.7,1.6,0.7
		C349.5,97.9,350,97.6,350.4,97.2"/>
	<path class="st2" d="M360.2,98.8c-0.4-0.4-0.6-1-0.6-1.7v-4.7h-0.9c-0.1,0-0.2,0-0.3-0.1c-0.1-0.1-0.1-0.2-0.1-0.3v-0.8l1.4-0.2
		l0.4-2.3c0-0.1,0.1-0.2,0.2-0.3c0.1-0.1,0.2-0.1,0.3-0.1h1.1V91h2.2v1.4h-2.2V97c0,0.3,0.1,0.5,0.2,0.6c0.1,0.1,0.3,0.2,0.5,0.2
		c0.1,0,0.2,0,0.3,0c0.1,0,0.2-0.1,0.2-0.1c0.1,0,0.1-0.1,0.2-0.1c0,0,0.1,0,0.1,0c0.1,0,0.1,0,0.1,0c0,0,0.1,0.1,0.1,0.1l0.6,1
		c-0.3,0.2-0.6,0.4-1,0.6c-0.4,0.1-0.8,0.2-1.2,0.2C361.2,99.4,360.6,99.2,360.2,98.8"/>
	<path class="st2" d="M375.3,91c0.4,0.2,0.8,0.4,1.2,0.7c0.3,0.3,0.6,0.7,0.8,1.2c0.2,0.5,0.3,1,0.3,1.6c0,0.2,0,0.3,0,0.4
		c0,0.1,0,0.2-0.1,0.2c0,0.1-0.1,0.1-0.1,0.1c-0.1,0-0.1,0-0.2,0h-5.2c0.1,0.9,0.3,1.5,0.7,1.9c0.4,0.4,0.9,0.6,1.6,0.6
		c0.3,0,0.6,0,0.8-0.1c0.2-0.1,0.4-0.2,0.6-0.3c0.2-0.1,0.3-0.2,0.5-0.3c0.1-0.1,0.3-0.1,0.4-0.1c0.1,0,0.2,0,0.2,0
		c0.1,0,0.1,0.1,0.2,0.1l0.6,0.7c-0.2,0.3-0.5,0.5-0.8,0.7c-0.3,0.2-0.6,0.3-0.9,0.4c-0.3,0.1-0.6,0.2-0.9,0.2
		c-0.3,0-0.6,0.1-0.9,0.1c-0.6,0-1.1-0.1-1.6-0.3c-0.5-0.2-0.9-0.5-1.3-0.9c-0.4-0.4-0.7-0.9-0.9-1.4c-0.2-0.6-0.3-1.2-0.3-1.9
		c0-0.6,0.1-1.1,0.3-1.6c0.2-0.5,0.5-0.9,0.8-1.3c0.3-0.4,0.8-0.7,1.3-0.9c0.5-0.2,1.1-0.3,1.7-0.3C374.3,90.7,374.8,90.8,375.3,91
		 M372.5,92.7c-0.3,0.3-0.5,0.8-0.6,1.4h3.8c0-0.3,0-0.5-0.1-0.7c-0.1-0.2-0.2-0.4-0.3-0.6c-0.1-0.2-0.3-0.3-0.6-0.4
		c-0.2-0.1-0.5-0.2-0.8-0.2C373.3,92.2,372.8,92.4,372.5,92.7"/>
	<path class="st2" d="M390.3,98c-0.2,0.3-0.5,0.5-0.7,0.7c-0.3,0.2-0.5,0.3-0.8,0.4c-0.3,0.1-0.6,0.2-0.9,0.2
		c-0.3,0-0.6,0.1-0.9,0.1c-0.5,0-1-0.1-1.5-0.3c-0.5-0.2-0.9-0.5-1.2-0.8c-0.3-0.4-0.6-0.8-0.8-1.4c-0.2-0.5-0.3-1.2-0.3-1.8
		c0-0.6,0.1-1.2,0.3-1.7c0.2-0.5,0.4-1,0.8-1.4c0.3-0.4,0.8-0.7,1.3-0.9c0.5-0.2,1.1-0.3,1.8-0.3c0.7,0,1.6,0.2,2.7,0.6v2.6h-0.1
		h-0.2H389c-0.2,0-0.3-0.1-0.4-0.3c0-0.1-0.1-0.5-0.1-1.2c-0.4-0.1-0.8-0.2-1.1-0.2c-0.4,0-0.7,0.1-0.9,0.2
		c-0.3,0.1-0.5,0.3-0.7,0.6c-0.2,0.2-0.3,0.5-0.4,0.9c-0.1,0.3-0.1,0.7-0.1,1.2c0,0.5,0,0.9,0.1,1.2c0.1,0.4,0.2,0.6,0.4,0.9
		c0.2,0.2,0.4,0.4,0.7,0.5c0.3,0.1,0.5,0.2,0.9,0.2c0.3,0,0.6,0,0.8-0.1c0.2-0.1,0.4-0.2,0.5-0.3c0.1-0.1,0.3-0.2,0.4-0.3
		c0.1-0.1,0.2-0.1,0.3-0.1c0.2,0,0.3,0.1,0.4,0.2L390.3,98z"/>
	<path class="st2" d="M397.5,98.8c-0.4-0.4-0.6-1-0.6-1.7v-4.7H396c-0.1,0-0.2,0-0.3-0.1c-0.1-0.1-0.1-0.2-0.1-0.3v-0.8l1.4-0.2
		l0.4-2.3c0-0.1,0.1-0.2,0.2-0.3c0.1-0.1,0.2-0.1,0.3-0.1h1.1V91h2.2v1.4h-2.2V97c0,0.3,0.1,0.5,0.2,0.6c0.1,0.1,0.3,0.2,0.5,0.2
		c0.1,0,0.2,0,0.3,0c0.1,0,0.2-0.1,0.2-0.1c0.1,0,0.1-0.1,0.2-0.1c0,0,0.1,0,0.1,0c0.1,0,0.1,0,0.1,0c0,0,0.1,0.1,0.1,0.1l0.6,1
		c-0.3,0.2-0.6,0.4-1,0.6c-0.4,0.1-0.8,0.2-1.2,0.2C398.4,99.4,397.8,99.2,397.5,98.8"/>
	<path class="st3" d="M57.1,97.9c-0.7-2.2-1.3-3.7-2-6c3.8,0.1,7.1,0.2,11.2,0.3c7.4-6.6,15.2-13.6,23.6-21c0.9,2.3,1.5,4,2.3,6
		c-7.9,7.2-15.7,14.3-23.7,21.6C64.8,98.6,61.1,98.3,57.1,97.9"/>
	<path class="st3" d="M81.1,64.4c0.8,2.4,1.4,4.1,2.1,6.2c-7.7,7-10.5,9.8-18.5,17.1c-3.7-0.3-7.4-0.6-11.3-0.9
		c-0.7-2-1.2-3.7-2.1-6.2c3.9,0.2,7.2,0.4,11.1,0.6C70,74.5,72.8,71.8,81.1,64.4"/>
	<path class="st3" d="M82.5,49.3c0.8,2.4,1.4,4.1,2.1,6.2C76.8,62.6,69,69.7,61,76.9c-3.7-0.3-7.4-0.6-11.3-0.9
		c-0.7-2-1.2-3.7-2.1-6.2c3.9,0.2,7.2,0.4,11.1,0.6C66.3,63.7,74.2,56.7,82.5,49.3"/>
	<path class="st4" d="M54,91.6c-4.1-0.1-18.8-1-22.6-1.2c0.8,2.3,1.3,3.8,2,6c4,0.3,19.2,1.4,22.8,1.7L54,91.6z"/>
	<path class="st4" d="M50.2,80.5c-3.9-0.2-18.7-1.2-22.6-1.4c0.8,2.5,1.4,4.2,2.1,6.2c3.9,0.3,19.1,1.5,22.8,1.8L50.2,80.5z"/>
	<path class="st4" d="M46.6,69.8c-3.9-0.2-18.7-1.2-22.6-1.4c0.8,2.5,1.4,4.2,2.1,6.2c3.9,0.3,19.1,1.5,22.8,1.8L46.6,69.8z"/>
	<polygon class="st4" points="72.7,46.9 49,68.1 56.2,68.5 79.9,47.4 	"/>
	<polygon class="st4" points="60.4,46.6 36.7,67.7 43.9,68.1 67.6,47 	"/>
	<polygon class="st4" points="48,45.9 24.3,67.1 31.5,67.5 55.2,46.4 	"/>
</g>
</svg>
