<?xml version="1.0" encoding="utf-8"?>
<!-- Generator: Adobe Illustrator 21.1.0, SVG Export Plug-In . SVG Version: 6.00 Build 0)  -->
<svg version="1.1" id="Layer_1" xmlns="http://www.w3.org/2000/svg" xmlns:xlink="http://www.w3.org/1999/xlink" x="0px" y="0px"
	 viewBox="0 0 512 512" style="enable-background:new 0 0 512 512;" xml:space="preserve">
<style type="text/css">
	.st0{fill:#FFFFFF;}
	.st1{fill:#324A5E;}
	.st2{fill:#2B3B4E;}
	.st3{fill:#FF6472;}
	.st4{fill:#C75163;}
</style>
<circle class="st0" cx="256" cy="256" r="256"/>
<path class="st0" d="M503.3,322.3l-78.4-78.4l-263.8-23.5L87,243.9l131.6,131.6l-83.4,22.7L249,511.9c2.3,0.1,4.7,0.1,7,0.1
	C374.5,512,474.1,431.5,503.3,322.3z"/>
<polygon class="st1" points="424.9,243.9 256,75 87.1,243.9 135.3,243.9 135.3,398.2 376.7,398.2 376.7,243.9 "/>
<polygon class="st2" points="256,75 256,398.2 376.7,398.2 376.7,243.9 424.9,243.9 "/>
<path class="st3" d="M183.6,280c0-20,16.2-36.2,36.2-36.2S256,260,256,280c0-20,16.2-36.2,36.2-36.2s36.2,16.2,36.2,36.2
	c0,34.6-72.4,76-72.4,76S183.6,316.6,183.6,280z"/>
<path class="st4" d="M328.4,280c0-20-16.2-36.2-36.2-36.2S256,260,256,280v76C256,356,328.4,314.6,328.4,280z"/>
</svg>
