<?xml version="1.0" encoding="utf-8"?>
<!-- Generator: Adobe Illustrator 21.1.0, SVG Export Plug-In . SVG Version: 6.00 Build 0)  -->
<svg version="1.1" id="Layer_1" xmlns="http://www.w3.org/2000/svg" xmlns:xlink="http://www.w3.org/1999/xlink" x="0px" y="0px"
	 viewBox="0 0 491.5 491.5" style="enable-background:new 0 0 491.5 491.5;" xml:space="preserve">
<style type="text/css">
	.st0{fill:#FFDC00;}
	.st1{fill:#FFC000;}
	.st2{fill:#FF6838;}
	.st3{fill:#AE4E32;}
	.st4{fill:#FFECB3;}
	.st5{fill:#008CC3;}
</style>
<circle class="st0" cx="245.5" cy="246.5" r="242.5"/>
<path class="st1" d="M266,488.1c120.3-10.1,215.7-107.9,221.7-229.3L360.1,131.2L79.4,216l119.1,119.1l-64,22.8L266,488.1z"/>
<circle class="st2" cx="245.5" cy="242.7" r="159.9"/>
<path class="st3" d="M245.5,402.6c88.3,0,159.9-71.6,159.9-159.9S333.8,82.8,245.5,82.8V402.6L245.5,402.6z"/>
<path class="st4" d="M405.4,242.7c0-88.3-71.6-159.9-159.9-159.9v159.9H405.4z"/>
<path class="st5" d="M358.6,355.8c28.9-28.9,46.8-68.9,46.8-113.1H245.5L358.6,355.8z"/>
</svg>
